{
  "accessors": [
    {
      "bufferView": 2,
      "componentType": 5126,
      "count": 555,
      "max": [
        43.8403205871582,
        89.3166732788086,
        6.547779560089111
      ],
      "min": [
        -43.8403205871582,
        -62.06221008300781,
        -0.6879393458366394
      ],
      "type": "VEC3"
    },
    {
      "bufferView": 2,
      "byteOffset": 6660,
      "componentType": 5126,
      "count": 555,
      "max": [
        1.0,
        1.0,
        1.0
      ],
      "min": [
        -1.0,
        -1.0,
        -1.0
      ],
      "type": "VEC3"
    },
    {
      "bufferView": 3,
      "componentType": 5126,
      "count": 555,
      "max": [
        1.0,
        1.0,
        1.0,
        1.0
      ],
      "min": [
        -1.0,
        -1.0,
        -1.0,
        1.0
      ],
      "type": "VEC4"
    },
    {
      "bufferView": 1,
      "componentType": 5126,
      "count": 555,
      "max": [
        0.9990000128746033,
        0.9985229969024658
      ],
      "min": [
        0.0010000000474974513,
        0.0010000000474974513
      ],
      "type": "VEC2"
    },
    {
      "bufferView": 0,
      "componentType": 5125,
      "count": 1248,
      "type": "SCALAR"
    }
  ],
  "asset": {
    "extras": {
      "author": "sergi1397 (https://sketchfab.com/sergi1397)",
      "license": "CC-BY-4.0 (http://creativecommons.org/licenses/by/4.0/)",
      "source": "https://sketchfab.com/3d-models/exit-door-30c5430f08b04df3a688924feb8eaaf6",
      "title": "Exit Door"
    },
    "generator": "Sketchfab-13.88.0",
    "version": "2.0"
  },
  "bufferViews": [
    {
      "buffer": 0,
      "byteLength": 4992,
      "name": "floatBufferViews",
      "target": 34963
    },
    {
      "buffer": 0,
      "byteLength": 4440,
      "byteOffset": 4992,
      "byteStride": 8,
      "name": "floatBufferViews",
      "target": 34962
    },
    {
      "buffer": 0,
      "byteLength": 13320,
      "byteOffset": 9432,
      "byteStride": 12,
      "name": "floatBufferViews",
      "target": 34962
    },
    {
      "buffer": 0,
      "byteLength": 8880,
      "byteOffset": 22752,
      "byteStride": 16,
      "name": "floatBufferViews",
      "target": 34962
    }
  ],
  "buffers": [
    {
      "byteLength": 31632,
      "uri": "scene.bin"
    }
  ],
  "images": [
    {
      "uri": "textures/U3_ADJ_02_Woman_Ref_default_baseColor.png"
    },
    {
      "uri": "textures/U3_ADJ_02_Woman_Ref_default_metallicRoughness.png"
    },
    {
      "uri": "textures/U3_ADJ_02_Woman_Ref_default_emissive.png"
    },
    {
      "uri": "textures/U3_ADJ_02_Woman_Ref_default_normal.png"
    }
  ],
  "materials": [
    {
      "doubleSided": true,
      "emissiveFactor": [
        1.0,
        1.0,
        1.0
      ],
      "emissiveTexture": {
        "index": 2
      },
      "name": "U3_ADJ_02_Woman_Ref_default",
      "normalTexture": {
        "index": 3
      },
      "occlusionTexture": {
        "index": 1
      },
      "pbrMetallicRoughness": {
        "baseColorTexture": {
          "index": 0
        },
        "metallicRoughnessTexture": {
          "index": 1
        }
      }
    }
  ],
  "meshes": [
    {
      "name": "Puerta salida_U3_ADJ_02_(Woman_Ref)_default_0",
      "primitives": [
        {
          "attributes": {
            "NORMAL": 1,
            "POSITION": 0,
            "TANGENT": 2,
            "TEXCOORD_0": 3
          },
          "indices": 4,
          "material": 0,
          "mode": 4
        }
      ]
    }
  ],
  "nodes": [
    {
      "children": [
        1
      ],
      "matrix": [
        1.0,
        0.0,
        0.0,
        0.0,
        0.0,
        2.220446049250313e-16,
        -1.0,
        0.0,
        0.0,
        1.0,
        2.220446049250313e-16,
        0.0,
        0.0,
        0.0,
        0.0,
        1.0
      ],
      "name": "Sketchfab_model"
    },
    {
      "children": [
        2
      ],
      "matrix": [
        0.02539999969303608,
        0.0,
        0.0,
        0.0,
        0.0,
        0.0,
        0.02539999969303608,
        0.0,
        0.0,
        -0.02539999969303608,
        0.0,
        0.0,
        0.0,
        0.0,
        0.0,
        1.0
      ],
      "name": "puertaSalida fbx.fbx"
    },
    {
      "children": [
        3
      ],
      "name": "RootNode"
    },
    {
      "children": [
        4
      ],
      "matrix": [
        2.9410030841827393,
        -1.634788943387974e-32,
        2.6698110567519093e-16,
        0.0,
        -5.951929508411885e-23,
        1.7980589866636987,
        6.556510057049953e-07,
        0.0,
        -1.6322586634147845e-16,
        -6.556510057049953e-07,
        1.7980589866636987,
        0.0,
        0.0,
        0.0,
        1.1760389669344734e-15,
        1.0
      ],
      "name": "Puerta salida"
    },
    {
      "children": [
        5
      ],
      "matrix": [
        1.0,
        0.0,
        -0.0,
        0.0,
        0.0,
        1.0,
        0.0,
        0.0,
        0.0,
        0.0,
        1.0,
        0.0,
        0.0,
        60.2057991027832,
        -2.6316790808778023e-06,
        1.0
      ],
      "name": "Object_4"
    },
    {
      "mesh": 0,
      "name": "Puerta salida_U3_ADJ_02_(Woman_Ref)_default_0"
    }
  ],
  "samplers": [
    {
      "magFilter": 9729,
      "minFilter": 9987,
      "wrapS": 10497,
      "wrapT": 10497
    }
  ],
  "scene": 0,
  "scenes": [
    {
      "name": "Sketchfab_Scene",
      "nodes": [
        0
      ]
    }
  ],
  "textures": [
    {
      "sampler": 0,
      "source": 0
    },
    {
      "sampler": 0,
      "source": 1
    },
    {
      "sampler": 0,
      "source": 2
    },
    {
      "sampler": 0,
      "source": 3
    }
  ]
}
